<svg width="670" height="530" viewBox="0 0 670 530" fill="none" xmlns="http://www.w3.org/2000/svg">
<g clip-path="url(#clip0)">
<g filter="url(#filter0_dd)">
<path d="M639.893 124.44C642.762 122.783 642.762 120.097 639.893 118.44L446.856 6.99983C443.986 5.34309 439.333 5.34308 436.463 6.99983L243.427 118.44C240.557 120.097 240.557 122.783 243.427 124.44L436.463 235.88C439.333 237.536 443.986 237.536 446.856 235.88L639.893 124.44Z" fill="url(#paint0_linear)"/>
</g>
<path d="M381.993 98.656C388.751 102.557 394.14 103.016 395.244 103.195L400.411 100.211C395.685 99.9819 390.474 98.299 386.543 96.0297C379.255 91.8225 379.785 86.5698 386.101 82.9236C392.373 79.3028 401.56 78.9458 408.848 83.153C414.104 86.1873 415.517 90.2161 415.34 90.624L420.42 87.6917C419.934 86.1873 418.3 83.408 413.353 80.5522C403.636 74.7896 389.546 75.0191 381.11 80.0422C372.409 84.9124 372.011 93.0464 381.993 98.656ZM411.39 115.627C420.401 120.982 434.402 120.701 442.838 115.678C451.539 110.808 452.025 102.725 442.75 97.5231C433.739 92.1685 419.782 92.4745 411.346 97.4976C402.645 102.368 402.115 110.425 411.39 115.627ZM415.94 113.001C409.403 109.227 409.977 104 416.293 100.353C422.565 96.7327 431.708 96.3502 438.245 100.124C444.87 103.949 444.119 109.176 437.847 112.797C431.531 116.443 422.565 116.825 415.94 113.001ZM462.393 130.435C467.737 132.296 473.7 132.22 478.382 129.517C484.3 126.1 482.975 121.561 476.968 118.094L463.762 110.47L433.772 127.783L438.586 130.562L450.202 123.856L456.342 127.4L453.294 139.053L459.301 142.521L462.393 130.435ZM454.619 121.306L464.071 115.85L472.11 120.49C475.378 122.377 476.615 124.825 473.347 126.712C470.122 128.573 465.926 127.834 462.658 125.947L454.619 121.306ZM473.543 145.541L482.775 140.212L496.378 148.066L500.884 145.465L487.28 137.611L494.523 133.43L511.616 143.297L516.122 140.697L494.214 128.049L464.224 145.363L486.396 158.163L490.901 155.562L473.543 145.541Z" fill="white"/>
</g>
<defs>
<filter id="filter0_dd" x="209.274" y="-10.2427" width="464.771" height="295.365" filterUnits="userSpaceOnUse" color-interpolation-filters="sRGB">
<feFlood flood-opacity="0" result="BackgroundImageFix"/>
<feColorMatrix in="SourceAlpha" type="matrix" values="0 0 0 0 0 0 0 0 0 0 0 0 0 0 0 0 0 0 127 0"/>
<feOffset dy="16"/>
<feGaussianBlur stdDeviation="16"/>
<feColorMatrix type="matrix" values="0 0 0 0 1 0 0 0 0 0.443137 0 0 0 0 0.321569 0 0 0 0.32 0"/>
<feBlend mode="normal" in2="BackgroundImageFix" result="effect1_dropShadow"/>
<feColorMatrix in="SourceAlpha" type="matrix" values="0 0 0 0 0 0 0 0 0 0 0 0 0 0 0 0 0 0 127 0"/>
<feOffset dy="6"/>
<feColorMatrix type="matrix" values="0 0 0 0 0.204167 0 0 0 0 0.0738858 0 0 0 0 0.0450868 0 0 0 1 0"/>
<feBlend mode="normal" in2="effect1_dropShadow" result="effect2_dropShadow"/>
<feBlend mode="normal" in="SourceGraphic" in2="effect2_dropShadow" result="shape"/>
</filter>
<linearGradient id="paint0_linear" x1="543.374" y1="62.7199" x2="441.673" y2="238.887" gradientUnits="userSpaceOnUse">
<stop stop-color="#FF8E75"/>
<stop offset="1" stop-color="#9F402B"/>
</linearGradient>
<clipPath id="clip0">
<rect width="670" height="530" fill="white"/>
</clipPath>
</defs>
</svg>
