<svg width="670" height="530" viewBox="0 0 670 530" fill="none" xmlns="http://www.w3.org/2000/svg">
<g filter="url(#filter0_dd)">
<path d="M425.627 245.439C428.513 243.784 428.521 241.09 425.645 239.43L232.608 127.99C229.745 126.337 225.106 126.332 222.233 127.98L91.302 203.06C88.4158 204.715 88.408 207.409 91.2846 209.07L284.321 320.51C287.184 322.163 291.824 322.167 294.696 320.52L425.627 245.439Z" fill="url(#paint0_linear)"/>
</g>
<path d="M209.653 184.716L202.741 188.706L193.57 183.411L200.481 179.421L197.649 177.786L180.008 187.971L182.84 189.606L190.92 184.941L200.091 190.236L192.011 194.9L194.843 196.535L212.484 186.351L209.653 184.716ZM194.427 202.534L197.415 204.259L225.319 198.62L222.383 196.925L209.314 199.67L214.069 192.125L211.133 190.43L204.897 200.54L194.427 202.534ZM208.975 211.053L211.781 212.673L218.718 208.668C218.64 209.733 219.211 211.053 221.42 212.328C225.525 214.698 231.605 214.548 235.528 212.283C239.451 210.018 239.737 206.493 235.632 204.123C233.683 202.999 231.293 202.489 229.422 202.489L230.721 201.739L227.915 200.119L208.975 211.053ZM223.966 210.918C221.446 209.463 220.926 207.213 223.836 205.533C226.772 203.838 230.669 204.138 233.189 205.593C235.71 207.048 235.346 209.238 232.8 210.708C230.253 212.178 226.486 212.373 223.966 210.918ZM237.941 221.865C241.864 224.13 244.696 224.175 244.696 224.175L247.216 222.72C247.19 222.705 243.787 222.36 240.487 220.455C237.447 218.701 237.863 216.781 239.629 215.401L250.36 221.595L251.659 220.845C254.907 218.971 255.868 215.806 251.971 213.556C247.814 211.156 241.656 211.141 237.629 213.466C233.758 215.701 233.212 219.136 237.941 221.865ZM241.942 214.216C243.137 213.706 246.385 212.971 249.321 214.666C252.256 216.361 250.672 218.056 249.736 218.716L241.942 214.216ZM247.416 226.886L250.222 228.506L256.951 224.621C259.861 223.001 263.862 223.061 267.266 225.026L269.578 223.691C266.72 222.041 263.343 221.651 261.082 222.236L263.68 220.736L260.875 219.116L247.416 226.886ZM264.256 237.057C265.633 237.852 268.153 238.947 270.336 239.097L272.934 237.597C272.934 237.597 269.868 237.447 266.724 235.632C263.737 233.908 263.711 231.733 266.491 230.128C269.037 228.658 273.09 228.598 275.74 230.128C278.962 231.988 278.52 234.072 278.52 234.072L281.404 232.408C281.326 231.073 279.871 229.663 278.208 228.703C273.843 226.183 267.686 226.288 263.762 228.553C259.839 230.818 259.242 234.162 264.256 237.057ZM277.863 244.943C279.552 245.918 284.099 248.393 289.815 245.093L297.817 240.473L295.011 238.853L286.931 243.518C286.931 243.518 283.787 245.513 280.332 243.518C276.876 241.523 280.332 239.708 280.332 239.708L288.412 235.043L285.606 233.424L277.604 238.043C271.888 241.343 276.175 243.968 277.863 244.943ZM295.228 254.937C299.333 257.307 305.413 257.157 309.336 254.892C313.259 252.628 313.545 249.103 309.44 246.733C307.491 245.608 305.101 245.098 303.23 245.098L309.206 241.648L305.958 240.313L288.317 250.498L291.149 252.133L292.5 251.323C292.474 252.358 293.046 253.678 295.228 254.937ZM297.514 253.378C295.02 251.938 294.734 249.823 297.67 248.128C300.58 246.448 304.244 246.613 306.738 248.053C309.258 249.508 309.18 251.833 306.634 253.303C304.088 254.772 300.035 254.832 297.514 253.378ZM311.749 264.475C315.672 266.74 318.504 266.785 318.504 266.785L321.024 265.33C320.998 265.315 317.595 264.97 314.295 263.065C311.255 261.31 311.671 259.39 313.438 258.01L324.168 264.205L325.467 263.455C328.715 261.58 329.676 258.415 325.779 256.165C321.622 253.766 315.464 253.751 311.437 256.075C307.566 258.31 307.02 261.745 311.749 264.475ZM315.75 256.825C316.945 256.315 320.193 255.581 323.129 257.275C326.065 258.97 324.48 260.665 323.545 261.325L315.75 256.825Z" fill="white"/>
<defs>
<filter id="filter0_dd" x="57.1318" y="110.747" width="402.665" height="259.006" filterUnits="userSpaceOnUse" color-interpolation-filters="sRGB">
<feFlood flood-opacity="0" result="BackgroundImageFix"/>
<feColorMatrix in="SourceAlpha" type="matrix" values="0 0 0 0 0 0 0 0 0 0 0 0 0 0 0 0 0 0 127 0"/>
<feOffset dy="16"/>
<feGaussianBlur stdDeviation="16"/>
<feColorMatrix type="matrix" values="0 0 0 0 0.541176 0 0 0 0 0.533333 0 0 0 0 1 0 0 0 0.32 0"/>
<feBlend mode="normal" in2="BackgroundImageFix" result="effect1_dropShadow"/>
<feColorMatrix in="SourceAlpha" type="matrix" values="0 0 0 0 0 0 0 0 0 0 0 0 0 0 0 0 0 0 127 0"/>
<feOffset dy="6"/>
<feColorMatrix type="matrix" values="0 0 0 0 0.0784314 0 0 0 0 0.0745098 0 0 0 0 0.239216 0 0 0 1 0"/>
<feBlend mode="normal" in2="effect1_dropShadow" result="effect2_dropShadow"/>
<feBlend mode="normal" in="SourceGraphic" in2="effect2_dropShadow" result="shape"/>
</filter>
<linearGradient id="paint0_linear" x1="329.142" y1="183.719" x2="227.44" y2="359.886" gradientUnits="userSpaceOnUse">
<stop stop-color="#8A88FF"/>
<stop offset="1" stop-color="#0500FF"/>
</linearGradient>
</defs>
</svg>
