<svg width="670" height="530" viewBox="0 0 670 530" fill="none" xmlns="http://www.w3.org/2000/svg">
<g filter="url(#filter0_dd)">
<path d="M444.197 279.527C447.083 277.872 447.091 275.178 444.214 273.517L296.431 188.202C293.568 186.549 288.929 186.545 286.056 188.192L186.054 245.539C183.168 247.194 183.16 249.888 186.037 251.549L333.819 336.863C336.682 338.516 341.322 338.521 344.195 336.873L444.197 279.527Z" fill="url(#paint0_linear)"/>
</g>
<path d="M273.687 229.453L267.697 232.911L259.748 228.322L265.738 224.864L263.284 223.448L247.995 232.274L250.449 233.691L257.452 229.648L265.4 234.237L258.397 238.28L260.852 239.697L276.141 230.87L273.687 229.453ZM260.491 244.896L263.081 246.391L287.264 241.503L284.719 240.034L273.393 242.413L277.514 235.874L274.97 234.406L269.565 243.167L260.491 244.896ZM273.099 252.279L275.531 253.683L281.543 250.212C281.476 251.135 281.971 252.279 283.885 253.384C287.443 255.437 292.712 255.307 296.112 253.345C299.512 251.382 299.76 248.327 296.202 246.273C294.513 245.298 292.441 244.856 290.82 244.856L291.946 244.206L289.514 242.802L273.099 252.279ZM286.092 252.162C283.907 250.901 283.457 248.951 285.979 247.495C288.523 246.026 291.901 246.286 294.085 247.547C296.269 248.808 295.954 250.706 293.747 251.98C291.541 253.254 288.276 253.423 286.092 252.162ZM298.203 261.649C301.603 263.612 304.058 263.651 304.058 263.651L306.242 262.39C306.219 262.377 303.269 262.078 300.41 260.427C297.775 258.907 298.135 257.243 299.667 256.047L308.966 261.415L310.092 260.765C312.907 259.141 313.74 256.398 310.362 254.448C306.76 252.368 301.423 252.355 297.933 254.37C294.578 256.307 294.105 259.284 298.203 261.649ZM301.671 255.02C302.706 254.578 305.521 253.941 308.066 255.41C310.61 256.879 309.236 258.348 308.426 258.92L301.671 255.02ZM306.415 266L308.847 267.404L314.679 264.037C317.201 262.633 320.668 262.685 323.618 264.388L325.622 263.231C323.145 261.801 320.218 261.464 318.259 261.97L320.511 260.671L318.079 259.267L306.415 266ZM321.01 274.816C322.203 275.505 324.387 276.454 326.279 276.584L328.53 275.284C328.53 275.284 325.873 275.154 323.149 273.581C320.559 272.086 320.537 270.201 322.946 268.81C325.153 267.536 328.666 267.484 330.962 268.81C333.754 270.422 333.372 272.229 333.372 272.229L335.871 270.786C335.804 269.629 334.543 268.407 333.101 267.575C329.319 265.391 323.982 265.482 320.582 267.445C317.182 269.408 316.664 272.307 321.01 274.816ZM332.803 281.65C334.266 282.495 338.207 284.64 343.161 281.78L350.096 277.776L347.664 276.372L340.661 280.415C340.661 280.415 337.937 282.144 334.942 280.415C331.947 278.686 334.942 277.113 334.942 277.113L341.945 273.07L339.513 271.666L332.578 275.67C327.624 278.53 331.339 280.805 332.803 281.65ZM347.852 290.312C351.41 292.366 356.679 292.236 360.079 290.273C363.479 288.31 363.727 285.255 360.169 283.201C358.48 282.226 356.409 281.784 354.787 281.784L359.966 278.795L357.152 277.638L341.863 286.464L344.317 287.881L345.488 287.179C345.465 288.076 345.961 289.22 347.852 290.312ZM349.834 288.96C347.672 287.712 347.424 285.879 349.969 284.41C352.491 282.954 355.666 283.097 357.827 284.345C360.011 285.606 359.944 287.621 357.737 288.895C355.53 290.169 352.018 290.221 349.834 288.96ZM362.17 298.578C365.57 300.54 368.025 300.579 368.025 300.579L370.209 299.319C370.186 299.306 367.237 299.007 364.377 297.356C361.742 295.835 362.103 294.171 363.634 292.975L372.933 298.344L374.059 297.694C376.874 296.069 377.707 293.326 374.329 291.376C370.727 289.296 365.39 289.283 361.9 291.298C358.545 293.235 358.072 296.212 362.17 298.578ZM365.638 291.948C366.674 291.506 369.488 290.869 372.033 292.338C374.577 293.807 373.204 295.276 372.393 295.848L365.638 291.948Z" fill="white"/>
<defs>
<filter id="filter0_dd" x="151.885" y="170.959" width="326.482" height="215.147" filterUnits="userSpaceOnUse" color-interpolation-filters="sRGB">
<feFlood flood-opacity="0" result="BackgroundImageFix"/>
<feColorMatrix in="SourceAlpha" type="matrix" values="0 0 0 0 0 0 0 0 0 0 0 0 0 0 0 0 0 0 127 0"/>
<feOffset dy="16"/>
<feGaussianBlur stdDeviation="16"/>
<feColorMatrix type="matrix" values="0 0 0 0 0.541176 0 0 0 0 0.533333 0 0 0 0 1 0 0 0 0.32 0"/>
<feBlend mode="normal" in2="BackgroundImageFix" result="effect1_dropShadow"/>
<feColorMatrix in="SourceAlpha" type="matrix" values="0 0 0 0 0 0 0 0 0 0 0 0 0 0 0 0 0 0 127 0"/>
<feOffset dy="6"/>
<feColorMatrix type="matrix" values="0 0 0 0 0.0784314 0 0 0 0 0.0745098 0 0 0 0 0.239216 0 0 0 1 0"/>
<feBlend mode="normal" in2="effect1_dropShadow" result="effect2_dropShadow"/>
<feBlend mode="normal" in="SourceGraphic" in2="effect2_dropShadow" result="shape"/>
</filter>
<linearGradient id="paint0_linear" x1="370.338" y1="230.869" x2="290.888" y2="368.493" gradientUnits="userSpaceOnUse">
<stop stop-color="#8A88FF"/>
<stop offset="1" stop-color="#0500FF"/>
</linearGradient>
</defs>
</svg>
