<svg width="670" height="530" viewBox="0 0 670 530" fill="none" xmlns="http://www.w3.org/2000/svg">
<g clip-path="url(#clip0)">
<g filter="url(#filter0_dd)">
<path d="M180.849 275.915C183.738 274.26 183.748 271.565 180.87 269.903L89.0712 216.908C86.2096 215.256 81.5729 215.25 78.6997 216.896L30.0833 244.736C27.1937 246.391 27.1843 249.087 30.0623 250.748L121.861 303.743C124.722 305.395 129.359 305.401 132.232 303.755L180.849 275.915Z" fill="url(#paint0_linear)"/>
</g>
<path d="M75.0853 248.131L77.2851 249.401L88.9247 245.641L82.4294 252.371L84.6118 253.631L100.027 248.951L97.8796 247.711L85.8936 251.631L92.666 244.701L90.5529 243.481L78.5668 247.401L85.3393 240.471L83.1915 239.232L75.0853 248.131ZM92.8844 258.706C94.3394 259.546 95.8636 259.766 97.0588 259.756L96.1234 260.276L98.0114 261.366L106.966 256.196L105.113 255.127L104.247 255.627C104.247 254.907 103.658 253.987 102.359 253.237C99.6223 251.657 95.5519 251.767 92.9364 253.277C90.3209 254.787 90.1477 257.126 92.8844 258.706ZM94.6858 257.826C93.0057 256.856 93.1269 255.327 94.8244 254.347C96.5218 253.367 99.1546 253.307 100.835 254.277C102.498 255.237 102.688 256.646 100.748 257.766C98.7909 258.896 96.3486 258.786 94.6858 257.826ZM102.495 264.255C105.007 265.705 107.38 265.515 108.748 264.725C110.099 263.945 110.013 263.215 109.51 262.125C108.869 260.715 108.575 260.325 109.147 259.995C109.614 259.725 110.359 259.775 111.364 260.355C112.264 260.875 112.68 261.555 112.697 262.005L114.533 260.945C114.36 260.545 113.893 259.895 112.801 259.265C111.173 258.325 108.869 258.115 107.345 258.995C105.856 259.855 106.358 260.805 106.878 261.865C107.345 262.815 107.553 263.395 106.895 263.775C106.306 264.115 105.336 263.975 104.141 263.285C102.686 262.445 102.53 261.175 102.53 261.175L100.694 262.235C100.694 262.235 100.971 263.375 102.495 264.255ZM127.949 267.99C126.251 267.01 124.623 266.87 123.428 267.08C123.826 266.19 123.341 265.33 122.077 264.6C120.276 263.56 118.561 263.85 118.214 263.93L119.288 263.31L117.418 262.23L108.463 267.4L110.333 268.48L115.72 265.37C117.314 264.61 119.098 264.8 120.137 265.4C121.367 266.11 121.072 266.88 119.635 267.71L114.317 270.78L116.188 271.859L121.228 268.95C122.908 267.98 124.883 268.14 126.009 268.79C127.239 269.5 126.944 270.27 125.507 271.1L120.189 274.169L122.06 275.249L127.568 272.069C130.027 270.65 129.958 269.15 127.949 267.99ZM135.958 271.454C136.564 271.804 137.5 271.804 138.089 271.464C138.695 271.114 138.695 270.574 138.089 270.224C137.5 269.884 136.564 269.884 135.958 270.234C135.369 270.574 135.369 271.114 135.958 271.454ZM124.873 276.873L126.743 277.953L135.716 272.773L133.845 271.694L124.873 276.873Z" fill="white"/>
</g>
<defs>
<filter id="filter0_dd" x="-4.08984" y="199.665" width="219.112" height="153.32" filterUnits="userSpaceOnUse" color-interpolation-filters="sRGB">
<feFlood flood-opacity="0" result="BackgroundImageFix"/>
<feColorMatrix in="SourceAlpha" type="matrix" values="0 0 0 0 0 0 0 0 0 0 0 0 0 0 0 0 0 0 127 0"/>
<feOffset dy="16"/>
<feGaussianBlur stdDeviation="16"/>
<feColorMatrix type="matrix" values="0 0 0 0 0.541176 0 0 0 0 0.533333 0 0 0 0 1 0 0 0 0.32 0"/>
<feBlend mode="normal" in2="BackgroundImageFix" result="effect1_dropShadow"/>
<feColorMatrix in="SourceAlpha" type="matrix" values="0 0 0 0 0 0 0 0 0 0 0 0 0 0 0 0 0 0 127 0"/>
<feOffset dy="6"/>
<feColorMatrix type="matrix" values="0 0 0 0 0.0784314 0 0 0 0 0.0745098 0 0 0 0 0.239216 0 0 0 1 0"/>
<feBlend mode="normal" in2="effect1_dropShadow" result="effect2_dropShadow"/>
<feBlend mode="normal" in="SourceGraphic" in2="effect2_dropShadow" result="shape"/>
</filter>
<linearGradient id="paint0_linear" x1="134.99" y1="243.417" x2="92.5347" y2="316.959" gradientUnits="userSpaceOnUse">
<stop stop-color="#8A88FF"/>
<stop offset="1" stop-color="#0500FF"/>
</linearGradient>
<clipPath id="clip0">
<rect width="670" height="530" fill="white"/>
</clipPath>
</defs>
</svg>
