<svg width="670" height="530" viewBox="0 0 670 530" fill="none" xmlns="http://www.w3.org/2000/svg">
<g filter="url(#filter0_dd)">
<path d="M282.849 334.915C285.738 333.26 285.748 330.565 282.87 328.903L191.071 275.908C188.21 274.256 183.573 274.25 180.7 275.896L132.083 303.736C129.194 305.391 129.184 308.087 132.062 309.748L223.861 362.743C226.722 364.395 231.359 364.401 234.232 362.755L282.849 334.915Z" fill="url(#paint0_linear)"/>
</g>
<path d="M172.388 304.419L181.395 309.619L183.161 308.599L176.025 304.479L186.019 298.709L184.149 297.629L172.388 304.419ZM194.739 305.503C195.346 305.853 196.281 305.853 196.87 305.513C197.476 305.163 197.476 304.623 196.87 304.273C196.281 303.933 195.346 303.933 194.739 304.283C194.151 304.623 194.151 305.163 194.739 305.503ZM183.654 310.923L185.525 312.003L194.497 306.823L192.626 305.743L183.654 310.923ZM192.976 316.605C195.713 318.184 199.766 318.084 202.381 316.575C204.997 315.065 205.187 312.715 202.451 311.135C201.152 310.385 199.558 310.045 198.311 310.045L202.295 307.745L200.13 306.855L188.369 313.645L190.257 314.735L191.158 314.195C191.14 314.885 191.521 315.765 192.976 316.605ZM194.5 315.565C192.838 314.605 192.647 313.195 194.604 312.065C196.544 310.945 198.987 311.055 200.649 312.015C202.329 312.985 202.278 314.535 200.58 315.515C198.883 316.495 196.181 316.535 194.5 315.565ZM196.317 322.473L198.188 323.553L202.812 320.883C202.76 321.593 203.141 322.473 204.614 323.323C207.35 324.903 211.403 324.803 214.019 323.293C216.634 321.783 216.825 319.433 214.088 317.853C212.789 317.103 211.196 316.763 209.949 316.763L210.815 316.263L208.944 315.183L196.317 322.473ZM206.311 322.383C204.631 321.413 204.285 319.913 206.225 318.793C208.182 317.663 210.78 317.863 212.46 318.833C214.14 319.803 213.898 321.263 212.2 322.243C210.503 323.223 207.991 323.353 206.311 322.383ZM211.439 326.963L218.489 331.033L220.152 330.073L215.631 327.463L223.529 327.063C224.776 327.043 226.006 326.753 226.959 326.203C228.985 325.033 228.933 323.084 226.82 321.864C224.707 320.644 221.33 320.614 219.303 321.784C217.38 322.894 217.328 324.663 219.078 325.893L210.435 326.363L211.474 326.963L211.439 326.963ZM221.226 325.093C220.134 324.463 220.169 323.504 221.226 322.894C222.282 322.284 223.945 322.264 225.036 322.894C226.127 323.524 226.093 324.483 225.036 325.093C223.98 325.703 222.317 325.723 221.226 325.093ZM217.461 334.679L219.331 335.759L223.956 333.089C223.904 333.799 224.285 334.679 225.757 335.529C228.494 337.109 232.547 337.009 235.163 335.499C237.778 333.989 237.969 331.639 235.232 330.059C233.933 329.309 232.339 328.969 231.092 328.969L231.958 328.47L230.088 327.39L217.461 334.679ZM227.455 334.589C225.775 333.619 225.428 332.119 227.368 330.999C229.325 329.869 231.924 330.069 233.604 331.039C235.284 332.009 235.041 333.469 233.344 334.449C231.646 335.429 229.135 335.559 227.455 334.589Z" fill="white"/>
<defs>
<filter id="filter0_dd" x="97.9102" y="258.665" width="219.112" height="153.32" filterUnits="userSpaceOnUse" color-interpolation-filters="sRGB">
<feFlood flood-opacity="0" result="BackgroundImageFix"/>
<feColorMatrix in="SourceAlpha" type="matrix" values="0 0 0 0 0 0 0 0 0 0 0 0 0 0 0 0 0 0 127 0"/>
<feOffset dy="16"/>
<feGaussianBlur stdDeviation="16"/>
<feColorMatrix type="matrix" values="0 0 0 0 0.541176 0 0 0 0 0.533333 0 0 0 0 1 0 0 0 0.32 0"/>
<feBlend mode="normal" in2="BackgroundImageFix" result="effect1_dropShadow"/>
<feColorMatrix in="SourceAlpha" type="matrix" values="0 0 0 0 0 0 0 0 0 0 0 0 0 0 0 0 0 0 127 0"/>
<feOffset dy="6"/>
<feColorMatrix type="matrix" values="0 0 0 0 0.0784314 0 0 0 0 0.0745098 0 0 0 0 0.239216 0 0 0 1 0"/>
<feBlend mode="normal" in2="effect1_dropShadow" result="effect2_dropShadow"/>
<feBlend mode="normal" in="SourceGraphic" in2="effect2_dropShadow" result="shape"/>
</filter>
<linearGradient id="paint0_linear" x1="236.99" y1="302.417" x2="194.535" y2="375.959" gradientUnits="userSpaceOnUse">
<stop stop-color="#8A88FF"/>
<stop offset="1" stop-color="#0500FF"/>
</linearGradient>
</defs>
</svg>
