<svg width="670" height="530" viewBox="0 0 670 530" fill="none" xmlns="http://www.w3.org/2000/svg">
<g filter="url(#filter0_dd)">
<path d="M437.948 375.021C440.818 373.364 440.818 370.678 437.948 369.021L346.232 316.073C343.362 314.416 338.709 314.416 335.839 316.073L244.278 368.931C241.408 370.588 241.408 373.274 244.278 374.931L335.994 427.879C338.864 429.536 343.517 429.536 346.387 427.879L437.948 375.021Z" fill="url(#paint0_linear)"/>
</g>
<path d="M325.736 363.149C327.831 363.879 330.17 363.849 332.006 362.789C334.327 361.449 333.807 359.669 331.452 358.309L326.273 355.319L314.512 362.109L316.4 363.199L320.955 360.569L323.363 361.959L322.168 366.529L324.523 367.888L325.736 363.149ZM322.687 359.569L326.394 357.429L329.546 359.249C330.828 359.989 331.313 360.949 330.031 361.689C328.767 362.419 327.121 362.129 325.84 361.389L322.687 359.569ZM329.9 371.313C331.026 371.963 334.057 373.613 337.868 371.413L343.203 368.333L341.332 367.253L335.945 370.363C335.945 370.363 333.85 371.693 331.546 370.363C329.242 369.033 331.546 367.823 331.546 367.823L336.933 364.713L335.062 363.633L329.727 366.713C325.917 368.913 328.775 370.663 329.9 371.313ZM338.55 376.286C341.061 377.736 343.434 377.546 344.803 376.756C346.154 375.976 346.067 375.246 345.565 374.156C344.924 372.746 344.629 372.356 345.201 372.026C345.669 371.756 346.413 371.806 347.418 372.386C348.319 372.906 348.734 373.586 348.752 374.036L350.588 372.976C350.414 372.576 349.947 371.926 348.856 371.296C347.227 370.356 344.924 370.146 343.4 371.026C341.91 371.886 342.412 372.836 342.932 373.896C343.4 374.846 343.607 375.426 342.949 375.806C342.36 376.146 341.39 376.006 340.195 375.316C338.74 374.476 338.584 373.206 338.584 373.206L336.748 374.266C336.748 374.266 337.025 375.406 338.55 376.286ZM346.037 380.308L347.907 381.388L355.58 376.958L358.646 378.728L360.17 377.848L357.105 376.078L359.963 374.429L350.263 373.889L353.71 375.878L346.037 380.308Z" fill="white"/>
<defs>
<filter id="filter0_dd" x="210.126" y="298.83" width="261.975" height="178.291" filterUnits="userSpaceOnUse" color-interpolation-filters="sRGB">
<feFlood flood-opacity="0" result="BackgroundImageFix"/>
<feColorMatrix in="SourceAlpha" type="matrix" values="0 0 0 0 0 0 0 0 0 0 0 0 0 0 0 0 0 0 127 0"/>
<feOffset dy="16"/>
<feGaussianBlur stdDeviation="16"/>
<feColorMatrix type="matrix" values="0 0 0 0 0.541176 0 0 0 0 0.533333 0 0 0 0 1 0 0 0 0.32 0"/>
<feBlend mode="normal" in2="BackgroundImageFix" result="effect1_dropShadow"/>
<feColorMatrix in="SourceAlpha" type="matrix" values="0 0 0 0 0 0 0 0 0 0 0 0 0 0 0 0 0 0 127 0"/>
<feOffset dy="6"/>
<feColorMatrix type="matrix" values="0 0 0 0 0.0784314 0 0 0 0 0.0745098 0 0 0 0 0.239216 0 0 0 1 0"/>
<feBlend mode="normal" in2="effect1_dropShadow" result="effect2_dropShadow"/>
<feBlend mode="normal" in="SourceGraphic" in2="effect2_dropShadow" result="shape"/>
</filter>
<linearGradient id="paint0_linear" x1="392.207" y1="342.615" x2="318.61" y2="470.101" gradientUnits="userSpaceOnUse">
<stop stop-color="#8A88FF"/>
<stop offset="1" stop-color="#0500FF"/>
</linearGradient>
</defs>
</svg>
